<?xml version="1.0" encoding="UTF-8"?>
<svg width="96" height="96" viewBox="0 0 96 96" xmlns="http://www.w3.org/2000/svg">
  <rect width="96" height="96" fill="white"/>

  <!-- Photo/Image frame -->
  <rect x="14.399999999999999" y="14.399999999999999" width="67.19999999999999" height="67.19999999999999"
        fill="none" stroke="black" stroke-width="2.88" rx="4.800000000000001"/>

  <!-- Mountain/landscape inside frame (representing image) -->
  <path d="M 17.279999999999998,78.72 L 31.199999999999996,41.279999999999994 L 44.63999999999999,58.07999999999999 L 64.79999999999998,37.919999999999995 L 78.72,78.72 Z"
        fill="black"/>

  <!-- Sun/circle in top right of image -->
  <circle cx="64.79999999999998" cy="31.199999999999996" r="5.76" fill="black"/>

  <!-- AI brain icon in bottom right corner -->
  <g transform="translate(67.2, 67.2)">
    <!-- Brain outline -->
    <path d="M M 2.4,12.0 Q 0,9.6 2.4,7.199999999999999 Q 1.2,4.8 3.5999999999999996,3.5999999999999996 Q 4.8,1.2 8.4,2.4 Q 12.0,0 15.6,2.4 Q 19.2,1.2 20.4,3.5999999999999996 Q 22.8,4.8 21.599999999999998,7.199999999999999 Q 24.0,9.6 21.599999999999998,12.0 Q 22.8,15.6 20.4,18.0 Q 18.0,20.4 14.399999999999999,19.2 Q 12.0,21.599999999999998 9.6,19.2 Q 6.0,20.4 3.5999999999999996,18.0 Q 1.2,15.6 2.4,12.0" fill="none" stroke="black" stroke-width="1.44" stroke-linecap="round" stroke-linejoin="round"/>
    <!-- Neural network nodes inside brain -->
    <circle cx="7.199999999999999" cy="9.6" r="1" fill="black"/>
    <circle cx="12.0" cy="9.6" r="1" fill="black"/>
    <circle cx="16.8" cy="9.6" r="1" fill="black"/>
  </g>

  <!-- Tag icon in top left corner -->
  <g transform="translate(5.760000000000001, 15.360000000000003) rotate(-45)">
    <path d="M 0,5.760000000000001 L 19.200000000000003,0 L 19.200000000000003,2.8800000000000003 L 2.8800000000000003,19.200000000000003 L 0,19.200000000000003 Z"
          fill="none" stroke="black" stroke-width="1.44"/>
    <circle cx="14.400000000000002" cy="2.8800000000000003" r="1.44" fill="black"/>
  </g>
</svg>